<?xml version="1.0" standalone="no"?>
<!DOCTYPE svg PUBLIC "-//W3C//DTD SVG 20010904//EN"
 "http://www.w3.org/TR/2001/REC-SVG-20010904/DTD/svg10.dtd">
<svg version="1.0" xmlns="http://www.w3.org/2000/svg"
 width="403.000000pt" height="71.000000pt" viewBox="0 0 403.000000 71.000000"
 preserveAspectRatio="xMidYMid meet">

<g transform="translate(0.000000,71.000000) scale(0.100000,-0.100000)"
fill="#3f51b5" stroke="none">
<path d="M740 410 l0 -240 45 0 45 0 0 123 c0 135 5 147 55 147 50 0 55 -12
55 -147 l0 -123 45 0 45 0 0 125 c0 142 -13 189 -55 205 -42 16 -90 12 -119
-11 l-26 -20 0 90 0 91 -45 0 -45 0 0 -240z"/>
<path d="M1650 565 l0 -86 -30 16 c-65 34 -137 7 -166 -61 -18 -43 -18 -145 0
-188 20 -48 61 -76 110 -76 23 0 51 7 62 15 25 19 34 19 34 0 0 -11 11 -15 40
-15 l40 0 0 240 0 240 -45 0 -45 0 0 -85z m-16 -141 c11 -11 16 -35 16 -83 0
-88 -15 -107 -82 -102 -47 3 -63 136 -23 181 22 24 67 26 89 4z"/>
<path d="M2170 410 l0 -240 45 0 45 0 0 240 0 240 -45 0 -45 0 0 -240z"/>
<path d="M3513 630 c-40 -24 -63 -67 -63 -117 0 -94 96 -157 186 -123 39 15
25 20 -21 8 -84 -22 -160 44 -152 131 13 124 180 150 234 36 14 -30 15 -43 6
-78 -13 -48 -9 -63 7 -23 46 123 -86 234 -197 166z"/>
<path d="M105 615 c-65 -23 -93 -72 -81 -138 9 -46 41 -73 126 -106 82 -32
110 -52 110 -79 0 -34 -33 -53 -86 -50 -42 3 -51 7 -69 35 -17 28 -26 32 -62
33 -41 0 -41 0 -34 -28 22 -74 80 -112 174 -112 108 0 162 41 162 122 0 44 -4
53 -36 82 -20 19 -62 43 -95 55 -32 12 -69 29 -81 37 -47 30 -14 94 48 94 30
0 79 -34 79 -56 0 -10 13 -14 46 -14 45 0 46 1 39 28 -22 92 -131 136 -240 97z"/>
<path d="M3540 612 c-20 -10 -42 -32 -52 -52 -17 -33 -17 -35 0 -42 9 -3 11
-7 5 -7 -23 -2 -14 -42 16 -72 33 -33 67 -38 74 -11 4 16 5 16 6 0 2 -28 39
-22 72 11 33 33 38 67 12 74 -17 4 -17 5 0 6 42 3 1 81 -53 99 -26 9 -30 8
-31 -6 0 -16 -1 -16 -7 0 -7 17 -9 17 -42 0z m16 -53 c17 -19 19 -19 25 -2 4
13 7 10 11 -15 2 -18 2 -35 -1 -37 -4 -2 -21 14 -39 36 -34 40 -30 56 4 18z"/>
<path d="M3750 520 c0 -16 5 -30 10 -30 6 0 10 14 10 30 0 17 -4 30 -10 30 -5
0 -10 -13 -10 -30z"/>
<path d="M3846 543 c-12 -13 -6 -53 9 -53 9 0 15 9 15 24 0 26 -12 40 -24 29z"/>
<path d="M3940 520 c0 -16 5 -30 10 -30 6 0 10 14 10 30 0 17 -4 30 -10 30 -5
0 -10 -13 -10 -30z"/>
<path d="M474 494 c-47 -23 -74 -80 -74 -154 0 -121 50 -174 157 -168 69 4
104 27 122 79 10 29 10 29 -29 29 -22 0 -42 -6 -47 -14 -26 -44 -95 -38 -113
9 -15 39 -12 102 5 135 13 25 22 30 51 30 28 0 38 -6 52 -30 13 -23 24 -30 49
-30 40 0 44 6 29 50 -23 70 -125 102 -202 64z"/>
<path d="M1170 492 c-109 -57 -104 -262 6 -308 65 -27 186 -8 201 33 8 21 -27
56 -43 43 -40 -34 -112 -29 -140 8 -29 37 -18 42 91 42 l105 0 0 43 c-1 58
-32 122 -69 141 -40 21 -108 20 -151 -2z m124 -74 c29 -41 21 -48 -49 -48 -70
0 -78 7 -49 48 10 15 25 22 49 22 24 0 39 -7 49 -22z"/>
<path d="M1810 369 l0 -141 29 -29 c25 -24 38 -29 78 -29 28 0 58 7 71 16 20
14 22 14 22 0 0 -12 10 -16 40 -16 l40 0 0 170 0 170 -40 0 -40 0 0 -124 c0
-137 -4 -147 -61 -148 -51 -2 -59 19 -59 154 l0 118 -40 0 -40 0 0 -141z"/>
<path d="M2403 490 c-61 -37 -87 -109 -71 -199 14 -76 72 -121 158 -121 52 0
80 10 113 38 16 15 16 16 -3 37 -21 22 -21 22 -59 3 -47 -23 -83 -16 -111 19
-11 14 -20 30 -20 34 0 5 50 9 111 9 l112 0 -6 49 c-8 65 -30 107 -70 131 -42
26 -112 26 -154 0z m121 -66 c9 -8 16 -24 16 -35 0 -17 -7 -19 -65 -19 -57 0
-64 2 -58 18 18 50 74 69 107 36z"/>
<path d="M2680 340 l0 -170 45 0 45 0 0 114 c0 107 1 116 22 130 12 9 35 16
50 16 26 0 28 3 28 40 0 37 -2 40 -29 40 -15 0 -40 -9 -55 -21 l-26 -20 0 20
c0 18 -6 21 -40 21 l-40 0 0 -170z"/>
<path d="M2920 340 l0 -170 40 0 40 0 0 106 c0 58 5 114 10 125 7 11 26 21 50
25 39 6 40 8 40 45 0 36 -2 39 -27 39 -15 0 -37 -10 -50 -22 l-23 -21 0 21 c0
19 -6 22 -40 22 l-40 0 0 -170z"/>
<path d="M3120 502 c0 -4 25 -78 55 -164 30 -86 55 -165 55 -175 0 -26 -30
-53 -58 -53 -18 0 -22 -6 -22 -35 0 -35 0 -35 43 -35 72 0 78 10 170 275 31
88 59 168 62 178 6 15 1 17 -39 17 -28 0 -48 -5 -51 -12 -2 -7 -17 -56 -33
-108 l-29 -95 -27 90 c-15 50 -30 98 -32 108 -4 13 -16 17 -50 17 -24 0 -44
-4 -44 -8z"/>
<path d="M3786 494 c-4 -11 -14 -15 -31 -12 -14 3 -25 2 -25 -3 0 -4 -3 -14
-6 -23 -5 -14 12 -16 150 -16 l156 0 0 35 c0 31 -3 35 -25 35 -16 0 -25 -6
-25 -15 0 -9 -9 -15 -25 -15 -16 0 -25 6 -25 15 0 9 -9 15 -25 15 -16 0 -25
-6 -25 -15 0 -9 -9 -15 -25 -15 -16 0 -25 6 -25 15 0 20 -36 19 -44 -1z"/>
<path d="M3670 425 c-8 -9 -8 -15 -2 -15 12 0 26 19 19 26 -2 2 -10 -2 -17
-11z"/>
<path d="M3678 401 c-16 -15 -28 -34 -28 -44 0 -10 -8 -17 -20 -17 -12 0 -20
7 -20 16 0 10 -7 14 -22 12 -22 -3 -23 -8 -26 -98 -2 -52 0 -105 3 -117 l5
-23 230 0 230 0 0 150 0 150 -162 -1 c-163 -1 -163 -1 -190 -28z m62 -36 c0
-18 -5 -25 -20 -25 -15 0 -20 7 -20 25 0 18 5 25 20 25 15 0 20 -7 20 -25z
m90 0 c0 -18 -5 -25 -19 -25 -11 0 -23 5 -26 10 -11 18 3 40 25 40 15 0 20 -7
20 -25z m88 2 c4 -20 -25 -34 -40 -19 -15 15 -1 44 19 40 10 -2 19 -11 21 -21z
m90 0 c4 -20 -25 -34 -40 -19 -15 15 -1 44 19 40 10 -2 19 -11 21 -21z m-358
-87 c0 -13 -7 -20 -20 -20 -13 0 -20 7 -20 20 0 13 7 20 20 20 13 0 20 -7 20
-20z m90 0 c0 -13 -7 -20 -20 -20 -13 0 -20 7 -20 20 0 13 7 20 20 20 13 0 20
-7 20 -20z m90 0 c0 -21 -33 -29 -45 -10 -9 15 4 30 26 30 12 0 19 -7 19 -20z
m90 0 c0 -15 -7 -20 -25 -20 -18 0 -25 5 -25 20 0 15 7 20 25 20 18 0 25 -5
25 -20z m90 0 c0 -15 -7 -20 -25 -20 -18 0 -25 5 -25 20 0 15 7 20 25 20 18 0
25 -5 25 -20z m-360 -85 c0 -18 -5 -25 -20 -25 -15 0 -20 7 -20 25 0 18 5 25
20 25 15 0 20 -7 20 -25z m88 -3 c3 -17 -2 -22 -17 -22 -16 0 -21 6 -21 26 0
33 33 30 38 -4z m90 0 c3 -16 -2 -22 -17 -22 -24 0 -35 15 -27 36 9 23 40 13
44 -14z m90 5 c4 -20 -25 -34 -40 -19 -15 15 -1 44 19 40 10 -2 19 -11 21 -21z
m90 0 c4 -20 -25 -34 -40 -19 -15 15 -1 44 19 40 10 -2 19 -11 21 -21z"/>
</g>
</svg>
